<svg id="Layer_1" data-name="Layer 1" xmlns="http://www.w3.org/2000/svg" viewBox="0 0 278 54.53"><defs><style>.cls-1{fill:#0d1625;}.cls-2{fill:#61c2d0;}.cls-3{fill:#e3c8a4;}.cls-4{fill:#fdfefe;}.cls-5{fill:#fcfcfc;}.cls-6{fill:#fdfefd;}</style></defs><title>NexaLab LOGO copy 11</title><path class="cls-1" d="M-369.88,324.65c-4.59,1.31-7.44-1.59-11.06-5.32,0,8.22,0,15.42,0,22.61,0,5.25-2.73,8.6-6.85,8.55s-6.63-3-6.66-8.25c-.07-12.64,0-25.27-.05-37.91,0-3.46,1-6.27,4.4-7.62,3.17-1.27,5.84,0,8.14,2.18,4.43,4.26,8.8,8.59,13.25,12.83,2.93,2.79,4,6,2.65,9.91C-366.21,324.06-368.52,323.76-369.88,324.65Z" transform="translate(394.5 -295.97)"/><path class="cls-2" d="M-363.91,321.68c4.09-1.18,6.78,1.66,10.65,4.32,0-7.94,0-15,0-22.1,0-2.53.13-5,2.56-6.66,4.44-3,10.66-.43,10.77,5q.44,21,0,41.92a6.23,6.23,0,0,1-10.25,4.7,118.63,118.63,0,0,1-17.06-16.7c-1.9-2.23-1.95-4.87-.54-7.47C-367.27,322.66-365.38,322.44-363.91,321.68Z" transform="translate(394.5 -295.97)"/><path class="cls-1" d="M-144.92,343c-.71,1.74-.1,4.6-3.52,4s-2-3.05-2-4.68c-.12-13.14-.09-26.28,0-39.42,0-1.64-.75-3.82,2.3-4,3.31-.15,2.75,2.11,2.76,4,0,4.48,0,9,0,14.24,4.52-3.25,8.79-5.49,14-4.84a15.86,15.86,0,0,1,12,7.18c4.59,7,3.76,17.3-1.89,23.09C-127.42,348.85-135.8,349-144.92,343Z" transform="translate(394.5 -295.97)"/><path class="cls-1" d="M-301,337.12c-3.42,8-10.07,11.5-18.25,10-8.52-1.56-13.87-7.78-14.39-16.72a16.86,16.86,0,0,1,16.4-18.27,16.54,16.54,0,0,1,17.53,16c.13,2.74-.47,3.85-3.47,3.76-7.15-.2-14.32.07-21.48-.11-3.8-.09-3.74,1.4-2.43,4.17,3.45,7.24,13.21,9.14,18.93,3.59C-305.38,336.83-305.38,336.83-301,337.12Z" transform="translate(394.5 -295.97)"/><path class="cls-1" d="M-161,317.08c.74-2,.11-4.85,3.59-4.31s1.93,3.05,2,4.65q.24,12.48,0,25c0,1.64,1.35,4.13-2.06,4.63s-2.63-2.5-3.5-4.09c-9.2,6.33-18.37,5.88-24.26-1.08-5.75-6.79-5.41-18.46.71-24.79C-178.64,311-169.35,310.79-161,317.08Z" transform="translate(394.5 -295.97)"/><path class="cls-1" d="M-223.94,312.92c1.92,2.69.76,5.71.81,8.56.14,6.83.15,13.67,0,20.49-.05,1.64,1.48,4.13-1.75,4.87-3.38.77-3.68-1.63-3.94-4-8.89,6.13-17.89,5.89-23.74-.44s-6.1-18.13-.28-24.81,14.83-7,23.73-1.07c1.61-.7-.64-3.7,2.22-3.66,1.41,1.38-.13,3.44,1,5.08C-224.61,316.32-225.55,314.12-223.94,312.92Z" transform="translate(394.5 -295.97)"/><path class="cls-1" d="M-293.61,312.93c10.42-1.85,9.79,8.62,15.17,11.74,5.34-3.12,4.79-13.48,15.09-11.77-3.42,4.64-6.41,9.1-9.83,13.19-2,2.42-1.86,4,.07,6.34,3.58,4.34,6.81,9,10.26,13.56-5.5,1.4-5.49,1.4-8.85-3.41q-3.14-4.5-6.28-8.95c-6.1,3.41-5.86,14.07-16.56,13.24,3.78-5.13,6.84-9.78,10.44-14,2.48-2.88,2.18-4.86-.13-7.57C-287.44,321.56-290.24,317.43-293.61,312.93Z" transform="translate(394.5 -295.97)"/><path class="cls-1" d="M-218.21,323.67c0-5.16-.29-10.34.13-15.46.18-2.24-2.5-6.51,2.32-6.54,5.21,0,2.48,4.54,2.56,6.82.35,9.8.26,19.63.08,29.44,0,3,.63,4.12,3.83,4,5.81-.27,11.64,0,17.47-.1,2,0,3.61.07,3.54,2.81s-1.93,2.21-3.49,2.22c-7.66,0-15.31-.11-23,.08-3,.07-3.6-1.09-3.53-3.77C-218.1,336.65-218.21,330.16-218.21,323.67Z" transform="translate(394.5 -295.97)"/><path class="cls-1" d="M-223.94,312.92a36,36,0,0,1,0,3.89c-.15,1.42.78,3.76-1.89,3.56-2.11-.17-2.17-2.15-2-3.8a29.29,29.29,0,0,1,.92-3.75Z" transform="translate(394.5 -295.97)"/><path class="cls-3" d="M-363.91,321.68l-3.88,3-2.09,0q1.9-1.51,3.82-3Z" transform="translate(394.5 -295.97)"/><path class="cls-4" d="M-121.78,329.89c0,7.74-4.84,12.94-12,12.92-7,0-11.94-5.53-11.82-13.19.11-7.33,5.12-12.74,11.83-12.76C-126.76,316.84-121.78,322.25-121.78,329.89Z" transform="translate(394.5 -295.97)"/><path class="cls-5" d="M-316.5,326.84c-3,0-6-.08-8.95,0-2.39.07-2.94-.83-2-3A11.33,11.33,0,0,1-317,316.74a11.6,11.6,0,0,1,11.06,7c1,2.39.53,3.28-2.13,3.14S-313.68,326.84-316.5,326.84Z" transform="translate(394.5 -295.97)"/><path class="cls-4" d="M-184.08,329.9c0-7.66,4.92-13,11.94-13s12,5.65,11.85,13.25c-.11,7.45-5,12.66-11.8,12.71C-179.24,342.86-184.07,337.66-184.08,329.9Z" transform="translate(394.5 -295.97)"/><path class="cls-6" d="M-252,329.58c.05-7.48,5.29-13,12.27-12.85s11.76,5.75,11.66,13.44c-.09,7.24-5.22,12.58-12,12.5C-247.21,342.59-252.08,337.24-252,329.58Z" transform="translate(394.5 -295.97)"/></svg>